<svg width="865" height="576" viewBox="0 0 865 576" fill="none" xmlns="http://www.w3.org/2000/svg">
<path fill-rule="evenodd" clip-rule="evenodd" d="M542.851 139.574C544.359 141.716 545.655 144.025 546.712 146.476C609.083 163.303 655 218.987 655 284.909C655 364.114 588.718 428.552 507.246 428.552C464.712 428.552 426.325 410.982 399.342 382.923H296.914C274.869 382.923 256.934 365.487 256.934 344.055C256.934 331.747 262.856 320.763 272.07 313.636C262.856 306.51 256.934 295.526 256.934 283.218C256.934 270.909 262.856 259.925 272.07 252.799C262.856 245.673 256.934 234.689 256.934 222.38C256.934 210.072 262.856 199.088 272.07 191.962C262.856 184.835 256.934 173.852 256.934 161.543C256.934 140.111 274.869 122.675 296.914 122.675H319.581C315.155 116.42 312.558 108.854 312.558 100.706C312.558 92.5577 315.156 84.991 319.581 78.7366H249.98C227.936 78.7366 210 61.3 210 39.8683C210 18.4367 227.936 1 249.98 1H462.919C484.964 1 502.9 18.4367 502.9 39.8683C502.9 48.0163 500.302 55.5829 495.877 61.8374H565.478C587.523 61.8374 605.458 79.274 605.458 100.706C605.458 122.137 587.523 139.574 565.478 139.574H542.851ZM588.075 100.706C588.075 88.5923 577.939 78.7366 565.478 78.7366H352.539C340.078 78.7366 329.941 88.5923 329.941 100.706C329.941 112.819 340.078 122.675 352.539 122.675H509.853H565.478C577.939 122.675 588.075 112.819 588.075 100.706ZM227.383 39.8683C227.383 51.9817 237.52 61.8374 249.98 61.8374H462.919C475.38 61.8374 485.517 51.9817 485.517 39.8683C485.517 27.7549 475.38 17.8993 462.919 17.8993H249.98C237.52 17.8993 227.383 27.7549 227.383 39.8683ZM509.853 139.574H296.914C284.454 139.574 274.316 149.43 274.316 161.543C274.316 173.656 284.454 183.512 296.914 183.512H402.69C429.454 157.428 466.445 141.265 507.246 141.265C511.446 141.265 515.602 141.446 519.713 141.781C516.706 140.365 513.354 139.574 509.853 139.574ZM387.839 200.411H296.914C284.453 200.411 274.316 210.267 274.316 222.38C274.316 234.495 284.453 244.349 296.914 244.349H365.499C370.344 228.375 377.972 213.553 387.839 200.411ZM361.508 261.249H296.914C284.453 261.249 274.316 271.104 274.316 283.218C274.316 295.332 284.453 305.187 296.914 305.187H360.972C360.005 298.56 359.493 291.792 359.493 284.909C359.493 276.85 360.19 268.949 361.508 261.249ZM274.316 344.055C274.316 356.169 284.453 366.024 296.914 366.024H385.374C376.031 352.797 368.906 337.982 364.521 322.086H296.914C284.453 322.086 274.316 331.941 274.316 344.055ZM376.876 284.909C376.876 354.795 435.36 411.653 507.246 411.653C579.133 411.653 637.617 354.795 637.617 284.909C637.617 215.022 579.133 158.164 507.246 158.164C435.36 158.164 376.876 215.022 376.876 284.909ZM485.075 256.026C485.075 266.293 495.002 274.646 507.204 274.646C530.498 274.646 549.449 291.772 549.449 312.823C549.449 330.742 535.715 345.809 517.262 349.899V354.123C517.262 359.523 512.758 363.902 507.204 363.902C501.649 363.902 497.145 359.523 497.145 354.123V349.899C478.692 345.809 464.958 330.742 464.958 312.823C464.958 307.423 469.463 303.045 475.017 303.045C480.571 303.045 485.075 307.423 485.075 312.823C485.075 323.091 495.002 331.444 507.204 331.444C519.405 331.444 529.332 323.091 529.332 312.823C529.332 302.556 519.405 294.203 507.204 294.203C483.909 294.203 464.958 277.077 464.958 256.026C464.958 238.107 478.692 223.04 497.145 218.951V213.865C497.145 208.465 501.649 204.086 507.204 204.086C512.758 204.086 517.262 208.465 517.262 213.865V218.951C535.715 223.04 549.449 238.107 549.449 256.026C549.449 261.426 544.944 265.805 539.39 265.805C533.836 265.805 529.332 261.426 529.332 256.026C529.332 245.759 519.405 237.406 507.204 237.406C495.002 237.406 485.075 245.759 485.075 256.026Z" fill="#FF872C"/>
<path d="M546.712 146.476L546.483 146.575L546.531 146.686L546.647 146.717L546.712 146.476ZM542.851 139.574V139.324H542.369L542.646 139.718L542.851 139.574ZM399.342 382.923L399.522 382.75L399.448 382.673H399.342V382.923ZM272.07 313.636L272.223 313.834L272.478 313.636L272.223 313.439L272.07 313.636ZM272.07 252.799L272.223 252.997L272.478 252.799L272.223 252.601L272.07 252.799ZM272.07 191.962L272.223 192.159L272.478 191.962L272.223 191.764L272.07 191.962ZM319.581 122.675V122.925H320.064L319.785 122.53L319.581 122.675ZM319.581 78.7366L319.785 78.881L320.064 78.4866H319.581V78.7366ZM495.877 61.8374L495.673 61.693L495.394 62.0874H495.877V61.8374ZM402.69 183.512V183.762H402.792L402.864 183.691L402.69 183.512ZM519.713 141.781L519.693 142.03L519.82 141.555L519.713 141.781ZM387.839 200.411L388.039 200.561L388.339 200.161H387.839V200.411ZM365.499 244.349V244.599H365.685L365.739 244.422L365.499 244.349ZM361.508 261.249L361.755 261.291L361.805 260.999H361.508V261.249ZM360.972 305.187V305.437H361.261L361.219 305.151L360.972 305.187ZM385.374 366.024V366.274H385.857L385.578 365.88L385.374 366.024ZM364.521 322.086L364.762 322.02L364.711 321.836H364.521V322.086ZM517.262 349.899L517.208 349.655L517.012 349.698V349.899H517.262ZM497.145 349.899H497.395V349.698L497.199 349.655L497.145 349.899ZM497.145 218.951L497.199 219.195L497.395 219.151V218.951H497.145ZM517.262 218.951H517.012V219.151L517.208 219.195L517.262 218.951ZM546.942 146.377C545.877 143.91 544.573 141.586 543.055 139.43L542.646 139.718C544.144 141.846 545.432 144.14 546.483 146.575L546.942 146.377ZM655.25 284.909C655.25 218.867 609.25 163.089 546.777 146.234L546.647 146.717C608.916 163.517 654.75 219.107 654.75 284.909H655.25ZM507.246 428.802C588.849 428.802 655.25 364.258 655.25 284.909H654.75C654.75 363.969 588.586 428.302 507.246 428.302V428.802ZM399.162 383.097C426.191 411.203 464.642 428.802 507.246 428.802V428.302C464.782 428.302 426.46 410.761 399.522 382.75L399.162 383.097ZM296.914 383.173H399.342V382.673H296.914V383.173ZM256.684 344.055C256.684 365.631 274.738 383.173 296.914 383.173V382.673C275 382.673 257.184 365.342 257.184 344.055H256.684ZM271.917 313.439C262.646 320.609 256.684 331.664 256.684 344.055H257.184C257.184 331.829 263.066 320.917 272.223 313.834L271.917 313.439ZM256.684 283.218C256.684 295.609 262.646 306.664 271.917 313.834L272.223 313.439C263.066 306.356 257.184 295.444 257.184 283.218H256.684ZM271.917 252.601C262.646 259.772 256.684 270.827 256.684 283.218H257.184C257.184 270.992 263.066 260.079 272.223 252.997L271.917 252.601ZM256.684 222.38C256.684 234.772 262.646 245.826 271.917 252.997L272.223 252.601C263.066 245.519 257.184 234.606 257.184 222.38H256.684ZM271.917 191.764C262.646 198.934 256.684 209.989 256.684 222.38H257.184C257.184 210.154 263.066 199.242 272.223 192.159L271.917 191.764ZM256.684 161.543C256.684 173.934 262.646 184.989 271.917 192.159L272.223 191.764C263.066 184.682 257.184 173.769 257.184 161.543H256.684ZM296.914 122.425C274.738 122.425 256.684 139.967 256.684 161.543H257.184C257.184 140.256 275 122.925 296.914 122.925V122.425ZM319.581 122.425H296.914V122.925H319.581V122.425ZM312.308 100.706C312.308 108.908 314.923 116.524 319.377 122.819L319.785 122.53C315.388 116.316 312.808 108.8 312.808 100.706H312.308ZM319.377 78.5922C314.924 84.8868 312.308 92.5035 312.308 100.706H312.808C312.808 92.6118 315.389 85.0952 319.785 78.881L319.377 78.5922ZM249.98 78.9866H319.581V78.4866H249.98V78.9866ZM209.75 39.8683C209.75 61.4446 227.804 78.9866 249.98 78.9866V78.4866C228.067 78.4866 210.25 61.1553 210.25 39.8683H209.75ZM249.98 0.75C227.804 0.75 209.75 18.292 209.75 39.8683H210.25C210.25 18.5813 228.067 1.25 249.98 1.25V0.75ZM462.919 0.75H249.98V1.25H462.919V0.75ZM503.15 39.8683C503.15 18.292 485.096 0.75 462.919 0.75V1.25C484.833 1.25 502.65 18.5813 502.65 39.8683H503.15ZM496.081 61.9817C500.534 55.6871 503.15 48.0704 503.15 39.8683H502.65C502.65 47.9621 500.069 55.4787 495.673 61.693L496.081 61.9817ZM565.478 61.5874H495.877V62.0874H565.478V61.5874ZM605.708 100.706C605.708 79.1293 587.654 61.5874 565.478 61.5874V62.0874C587.391 62.0874 605.208 79.4187 605.208 100.706H605.708ZM565.478 139.824C587.654 139.824 605.708 122.282 605.708 100.706H605.208C605.208 121.993 587.391 139.324 565.478 139.324V139.824ZM542.851 139.824H565.478V139.324H542.851V139.824ZM565.478 78.9866C577.807 78.9866 587.825 88.7369 587.825 100.706H588.325C588.325 88.4476 578.07 78.4866 565.478 78.4866V78.9866ZM352.539 78.9866H565.478V78.4866H352.539V78.9866ZM330.191 100.706C330.191 88.7369 340.209 78.9866 352.539 78.9866V78.4866C339.947 78.4866 329.691 88.4476 329.691 100.706H330.191ZM352.539 122.425C340.209 122.425 330.191 112.674 330.191 100.706H329.691C329.691 112.964 339.947 122.925 352.539 122.925V122.425ZM509.853 122.425H352.539V122.925H509.853V122.425ZM565.478 122.425H509.853V122.925H565.478V122.425ZM587.825 100.706C587.825 112.674 577.807 122.425 565.478 122.425V122.925C578.07 122.925 588.325 112.964 588.325 100.706H587.825ZM249.98 61.5874C237.651 61.5874 227.633 51.837 227.633 39.8683H227.133C227.133 52.1264 237.388 62.0874 249.98 62.0874V61.5874ZM462.919 61.5874H249.98V62.0874H462.919V61.5874ZM485.267 39.8683C485.267 51.837 475.249 61.5874 462.919 61.5874V62.0874C475.512 62.0874 485.767 52.1264 485.767 39.8683H485.267ZM462.919 18.1493C475.249 18.1493 485.267 27.8996 485.267 39.8683H485.767C485.767 27.6103 475.512 17.6493 462.919 17.6493V18.1493ZM249.98 18.1493H462.919V17.6493H249.98V18.1493ZM227.633 39.8683C227.633 27.8996 237.651 18.1493 249.98 18.1493V17.6493C237.388 17.6493 227.133 27.6103 227.133 39.8683H227.633ZM296.914 139.824H509.853V139.324H296.914V139.824ZM274.566 161.543C274.566 149.574 284.585 139.824 296.914 139.824V139.324C284.323 139.324 274.066 149.285 274.066 161.543H274.566ZM296.914 183.262C284.585 183.262 274.566 173.512 274.566 161.543H274.066C274.066 173.801 284.323 183.762 296.914 183.762V183.262ZM402.69 183.262H296.914V183.762H402.69V183.262ZM507.246 141.015C466.378 141.015 429.325 157.205 402.515 183.333L402.864 183.691C429.583 157.651 466.512 141.515 507.246 141.515V141.015ZM519.734 141.532C515.616 141.196 511.453 141.015 507.246 141.015V141.515C511.439 141.515 515.588 141.695 519.693 142.03L519.734 141.532ZM509.853 139.824C513.316 139.824 516.632 140.606 519.607 142.007L519.82 141.555C516.78 140.123 513.392 139.324 509.853 139.324V139.824ZM296.914 200.661H387.839V200.161H296.914V200.661ZM274.566 222.38C274.566 210.412 284.584 200.661 296.914 200.661V200.161C284.322 200.161 274.066 210.122 274.066 222.38H274.566ZM296.914 244.099C284.584 244.099 274.566 234.35 274.566 222.38H274.066C274.066 234.639 284.322 244.599 296.914 244.599V244.099ZM365.499 244.099H296.914V244.599H365.499V244.099ZM387.639 200.261C377.755 213.426 370.113 228.274 365.26 244.277L365.739 244.422C370.575 228.477 378.189 213.68 388.039 200.561L387.639 200.261ZM296.914 261.499H361.508V260.999H296.914V261.499ZM274.566 283.218C274.566 271.248 284.584 261.499 296.914 261.499V260.999C284.322 260.999 274.066 270.959 274.066 283.218H274.566ZM296.914 304.937C284.584 304.937 274.566 295.187 274.566 283.218H274.066C274.066 295.477 284.322 305.437 296.914 305.437V304.937ZM360.972 304.937H296.914V305.437H360.972V304.937ZM359.243 284.909C359.243 291.804 359.756 298.584 360.725 305.223L361.219 305.151C360.254 298.535 359.743 291.779 359.743 284.909H359.243ZM361.262 261.207C359.941 268.92 359.243 276.836 359.243 284.909H359.743C359.743 276.865 360.439 268.977 361.755 261.291L361.262 261.207ZM296.914 365.774C284.584 365.774 274.566 356.025 274.566 344.055H274.066C274.066 356.314 284.322 366.274 296.914 366.274V365.774ZM385.374 365.774H296.914V366.274H385.374V365.774ZM364.28 322.153C368.673 338.077 375.81 352.918 385.17 366.168L385.578 365.88C376.251 352.676 369.14 337.887 364.762 322.02L364.28 322.153ZM296.914 322.336H364.521V321.836H296.914V322.336ZM274.566 344.055C274.566 332.086 284.584 322.336 296.914 322.336V321.836C284.322 321.836 274.066 331.796 274.066 344.055H274.566ZM507.246 411.403C435.491 411.403 377.126 354.651 377.126 284.909H376.626C376.626 354.94 435.229 411.903 507.246 411.903V411.403ZM637.367 284.909C637.367 354.651 579.001 411.403 507.246 411.403V411.903C579.264 411.903 637.867 354.94 637.867 284.909H637.367ZM507.246 158.414C579.001 158.414 637.367 215.166 637.367 284.909H637.867C637.867 214.877 579.264 157.914 507.246 157.914V158.414ZM377.126 284.909C377.126 215.166 435.491 158.414 507.246 158.414V157.914C435.229 157.914 376.626 214.877 376.626 284.909H377.126ZM507.204 274.396C495.098 274.396 485.325 266.116 485.325 256.026H484.825C484.825 266.47 494.906 274.896 507.204 274.896V274.396ZM549.699 312.823C549.699 291.611 530.611 274.396 507.204 274.396V274.896C530.384 274.896 549.199 291.933 549.199 312.823H549.699ZM517.316 350.143C535.864 346.032 549.699 330.879 549.699 312.823H549.199C549.199 330.606 535.566 345.586 517.208 349.655L517.316 350.143ZM517.512 354.123V349.899H517.012V354.123H517.512ZM507.204 364.152C512.889 364.152 517.512 359.667 517.512 354.123H517.012C517.012 359.378 512.626 363.652 507.204 363.652V364.152ZM496.895 354.123C496.895 359.667 501.518 364.152 507.204 364.152V363.652C501.781 363.652 497.395 359.378 497.395 354.123H496.895ZM496.895 349.899V354.123H497.395V349.899H496.895ZM464.708 312.823C464.708 330.879 478.543 346.032 497.091 350.143L497.199 349.655C478.841 345.586 465.208 330.606 465.208 312.823H464.708ZM475.017 302.795C469.331 302.795 464.708 307.279 464.708 312.823H465.208C465.208 307.568 469.594 303.295 475.017 303.295V302.795ZM485.325 312.823C485.325 307.279 480.702 302.795 475.017 302.795V303.295C480.44 303.295 484.825 307.568 484.825 312.823H485.325ZM507.204 331.194C495.098 331.194 485.325 322.914 485.325 312.823H484.825C484.825 323.267 494.906 331.694 507.204 331.694V331.194ZM529.082 312.823C529.082 322.914 519.309 331.194 507.204 331.194V331.694C519.501 331.694 529.582 323.267 529.582 312.823H529.082ZM507.204 294.453C519.309 294.453 529.082 302.732 529.082 312.823H529.582C529.582 302.379 519.501 293.953 507.204 293.953V294.453ZM464.708 256.026C464.708 277.238 483.796 294.453 507.204 294.453V293.953C484.023 293.953 465.208 276.915 465.208 256.026H464.708ZM497.091 218.707C478.543 222.817 464.708 237.971 464.708 256.026H465.208C465.208 238.243 478.841 223.263 497.199 219.195L497.091 218.707ZM496.895 213.865V218.951H497.395V213.865H496.895ZM507.204 203.836C501.518 203.836 496.895 208.321 496.895 213.865H497.395C497.395 208.61 501.781 204.336 507.204 204.336V203.836ZM517.512 213.865C517.512 208.321 512.889 203.836 507.204 203.836V204.336C512.626 204.336 517.012 208.61 517.012 213.865H517.512ZM517.512 218.951V213.865H517.012V218.951H517.512ZM549.699 256.026C549.699 237.971 535.864 222.817 517.316 218.707L517.208 219.195C535.566 223.263 549.199 238.243 549.199 256.026H549.699ZM539.39 266.055C545.076 266.055 549.699 261.571 549.699 256.026H549.199C549.199 261.281 544.813 265.555 539.39 265.555V266.055ZM529.082 256.026C529.082 261.571 533.705 266.055 539.39 266.055V265.555C533.967 265.555 529.582 261.281 529.582 256.026H529.082ZM507.204 237.656C519.309 237.656 529.082 245.936 529.082 256.026H529.582C529.582 245.582 519.501 237.156 507.204 237.156V237.656ZM485.325 256.026C485.325 245.936 495.098 237.656 507.204 237.656V237.156C494.906 237.156 484.825 245.582 484.825 256.026H485.325Z" fill="#FF872C"/>
<path d="M108.516 548H130.416V563H88.9164V492.5H108.516V548ZM149.938 501.7C146.471 501.7 143.671 500.767 141.538 498.9C139.471 496.967 138.438 494.567 138.438 491.7C138.438 488.767 139.471 486.333 141.538 484.4C143.671 482.467 146.471 481.5 149.938 481.5C153.338 481.5 156.071 482.467 158.138 484.4C160.271 486.333 161.338 488.767 161.338 491.7C161.338 494.567 160.271 496.967 158.138 498.9C156.071 500.767 153.338 501.7 149.938 501.7ZM159.638 506.9V563H140.038V506.9H159.638ZM209.499 506.4C215.966 506.4 221.099 508.567 224.899 512.9C228.699 517.167 230.599 522.967 230.599 530.3V563H210.999V532.9C210.999 529.7 210.166 527.2 208.499 525.4C206.833 523.533 204.599 522.6 201.799 522.6C198.866 522.6 196.566 523.533 194.899 525.4C193.233 527.2 192.399 529.7 192.399 532.9V563H172.799V506.9H192.399V514.9C194.133 512.367 196.466 510.333 199.399 508.8C202.333 507.2 205.699 506.4 209.499 506.4ZM267.254 563.7C262.187 563.7 257.654 562.867 253.654 561.2C249.721 559.467 246.587 557.133 244.254 554.2C241.987 551.2 240.721 547.833 240.454 544.1H259.454C259.721 545.9 260.554 547.3 261.954 548.3C263.354 549.3 265.087 549.8 267.154 549.8C268.754 549.8 270.021 549.467 270.954 548.8C271.887 548.133 272.354 547.267 272.354 546.2C272.354 544.8 271.587 543.767 270.054 543.1C268.521 542.433 265.987 541.7 262.454 540.9C258.454 540.1 255.121 539.2 252.454 538.2C249.787 537.2 247.454 535.567 245.454 533.3C243.521 531.033 242.554 527.967 242.554 524.1C242.554 520.767 243.454 517.767 245.254 515.1C247.054 512.367 249.687 510.2 253.154 508.6C256.687 507 260.921 506.2 265.854 506.2C273.187 506.2 278.954 508 283.154 511.6C287.354 515.2 289.787 519.933 290.454 525.8H272.754C272.421 524 271.621 522.633 270.354 521.7C269.154 520.7 267.521 520.2 265.454 520.2C263.854 520.2 262.621 520.5 261.754 521.1C260.954 521.7 260.554 522.533 260.554 523.6C260.554 524.933 261.321 525.967 262.854 526.7C264.387 527.367 266.854 528.067 270.254 528.8C274.321 529.667 277.687 530.633 280.354 531.7C283.087 532.767 285.454 534.5 287.454 536.9C289.521 539.233 290.554 542.433 290.554 546.5C290.554 549.767 289.587 552.7 287.654 555.3C285.787 557.9 283.087 559.967 279.554 561.5C276.087 562.967 271.987 563.7 267.254 563.7ZM349.99 492.5V508.1H321.79V520.5H342.59V535.4H321.79V563H302.19V492.5H349.99ZM370.145 501.7C366.678 501.7 363.878 500.767 361.745 498.9C359.678 496.967 358.645 494.567 358.645 491.7C358.645 488.767 359.678 486.333 361.745 484.4C363.878 482.467 366.678 481.5 370.145 481.5C373.545 481.5 376.278 482.467 378.345 484.4C380.478 486.333 381.545 488.767 381.545 491.7C381.545 494.567 380.478 496.967 378.345 498.9C376.278 500.767 373.545 501.7 370.145 501.7ZM379.845 506.9V563H360.245V506.9H379.845ZM429.706 506.4C436.173 506.4 441.306 508.567 445.106 512.9C448.906 517.167 450.806 522.967 450.806 530.3V563H431.206V532.9C431.206 529.7 430.373 527.2 428.706 525.4C427.04 523.533 424.806 522.6 422.006 522.6C419.073 522.6 416.773 523.533 415.106 525.4C413.44 527.2 412.606 529.7 412.606 532.9V563H393.006V506.9H412.606V514.9C414.34 512.367 416.673 510.333 419.606 508.8C422.54 507.2 425.906 506.4 429.706 506.4ZM460.361 534.9C460.361 529.1 461.394 524.033 463.461 519.7C465.594 515.367 468.461 512.033 472.061 509.7C475.728 507.367 479.794 506.2 484.261 506.2C488.128 506.2 491.461 506.967 494.261 508.5C497.061 510.033 499.228 512.1 500.761 514.7V506.9H520.361V563H500.761V555.2C499.228 557.8 497.028 559.867 494.161 561.4C491.361 562.933 488.061 563.7 484.261 563.7C479.794 563.7 475.728 562.533 472.061 560.2C468.461 557.867 465.594 554.533 463.461 550.2C461.394 545.8 460.361 540.7 460.361 534.9ZM500.761 534.9C500.761 531.3 499.761 528.467 497.761 526.4C495.828 524.333 493.428 523.3 490.561 523.3C487.628 523.3 485.194 524.333 483.261 526.4C481.328 528.4 480.361 531.233 480.361 534.9C480.361 538.5 481.328 541.367 483.261 543.5C485.194 545.567 487.628 546.6 490.561 546.6C493.428 546.6 495.828 545.567 497.761 543.5C499.761 541.433 500.761 538.567 500.761 534.9ZM570.23 506.4C576.696 506.4 581.83 508.567 585.63 512.9C589.43 517.167 591.33 522.967 591.33 530.3V563H571.73V532.9C571.73 529.7 570.896 527.2 569.23 525.4C567.563 523.533 565.33 522.6 562.53 522.6C559.596 522.6 557.296 523.533 555.63 525.4C553.963 527.2 553.13 529.7 553.13 532.9V563H533.53V506.9H553.13V514.9C554.863 512.367 557.196 510.333 560.13 508.8C563.063 507.2 566.43 506.4 570.23 506.4ZM600.884 534.9C600.884 529.1 602.084 524.033 604.484 519.7C606.884 515.367 610.218 512.033 614.484 509.7C618.818 507.367 623.751 506.2 629.284 506.2C636.418 506.2 642.418 508.167 647.284 512.1C652.151 515.967 655.284 521.4 656.684 528.4H635.884C634.684 524.733 632.351 522.9 628.884 522.9C626.418 522.9 624.451 523.933 622.984 526C621.584 528 620.884 530.967 620.884 534.9C620.884 538.833 621.584 541.833 622.984 543.9C624.451 545.967 626.418 547 628.884 547C632.418 547 634.751 545.167 635.884 541.5H656.684C655.284 548.433 652.151 553.867 647.284 557.8C642.418 561.733 636.418 563.7 629.284 563.7C623.751 563.7 618.818 562.533 614.484 560.2C610.218 557.867 606.884 554.533 604.484 550.2C602.084 545.867 600.884 540.767 600.884 534.9ZM720.427 534.3C720.427 535.833 720.327 537.367 720.127 538.9H683.027C683.227 541.967 684.06 544.267 685.527 545.8C687.06 547.267 688.993 548 691.327 548C694.593 548 696.927 546.533 698.327 543.6H719.227C718.36 547.467 716.66 550.933 714.127 554C711.66 557 708.527 559.367 704.727 561.1C700.927 562.833 696.727 563.7 692.127 563.7C686.593 563.7 681.66 562.533 677.327 560.2C673.06 557.867 669.693 554.533 667.227 550.2C664.827 545.867 663.627 540.767 663.627 534.9C663.627 529.033 664.827 523.967 667.227 519.7C669.627 515.367 672.96 512.033 677.227 509.7C681.56 507.367 686.527 506.2 692.127 506.2C697.66 506.2 702.56 507.333 706.827 509.6C711.093 511.867 714.427 515.133 716.827 519.4C719.227 523.6 720.427 528.567 720.427 534.3ZM700.427 529.4C700.427 527 699.627 525.133 698.027 523.8C696.427 522.4 694.427 521.7 692.027 521.7C689.627 521.7 687.66 522.367 686.127 523.7C684.593 524.967 683.593 526.867 683.127 529.4H700.427ZM754.348 563.7C749.281 563.7 744.748 562.867 740.748 561.2C736.814 559.467 733.681 557.133 731.348 554.2C729.081 551.2 727.814 547.833 727.548 544.1H746.548C746.814 545.9 747.648 547.3 749.048 548.3C750.448 549.3 752.181 549.8 754.248 549.8C755.848 549.8 757.114 549.467 758.048 548.8C758.981 548.133 759.448 547.267 759.448 546.2C759.448 544.8 758.681 543.767 757.148 543.1C755.614 542.433 753.081 541.7 749.548 540.9C745.548 540.1 742.214 539.2 739.548 538.2C736.881 537.2 734.548 535.567 732.548 533.3C730.614 531.033 729.648 527.967 729.648 524.1C729.648 520.767 730.548 517.767 732.348 515.1C734.148 512.367 736.781 510.2 740.248 508.6C743.781 507 748.014 506.2 752.948 506.2C760.281 506.2 766.048 508 770.248 511.6C774.448 515.2 776.881 519.933 777.548 525.8H759.848C759.514 524 758.714 522.633 757.448 521.7C756.248 520.7 754.614 520.2 752.548 520.2C750.948 520.2 749.714 520.5 748.848 521.1C748.048 521.7 747.648 522.533 747.648 523.6C747.648 524.933 748.414 525.967 749.948 526.7C751.481 527.367 753.948 528.067 757.348 528.8C761.414 529.667 764.781 530.633 767.448 531.7C770.181 532.767 772.548 534.5 774.548 536.9C776.614 539.233 777.648 542.433 777.648 546.5C777.648 549.767 776.681 552.7 774.748 555.3C772.881 557.9 770.181 559.967 766.648 561.5C763.181 562.967 759.081 563.7 754.348 563.7Z" fill="white"/>
</svg>
