<svg width="141" height="65" viewBox="0 0 141 65" fill="none" xmlns="http://www.w3.org/2000/svg">
<path fill-rule="evenodd" clip-rule="evenodd" d="M79.4691 12.0197C79.589 12.1901 79.6921 12.3737 79.7762 12.5686C84.7361 13.9067 88.3875 18.3349 88.3875 23.5771C88.3875 29.8757 83.1166 35 76.6378 35C73.2553 35 70.2027 33.6028 68.0569 31.3715H59.9116C58.1585 31.3715 56.7323 29.9849 56.7323 28.2806C56.7323 27.3018 57.2032 26.4283 57.9359 25.8616C57.2032 25.2949 56.7323 24.4215 56.7323 23.4426C56.7323 22.4638 57.2032 21.5904 57.9359 21.0237C57.2032 20.457 56.7323 19.5835 56.7323 18.6047C56.7323 17.6259 57.2032 16.7525 57.9359 16.1857C57.2032 15.619 56.7323 14.7456 56.7323 13.7668C56.7323 12.0625 58.1585 10.6759 59.9116 10.6759H61.7142C61.3622 10.1785 61.1557 9.57679 61.1557 8.92884C61.1557 8.28089 61.3623 7.67917 61.7142 7.18181H56.1793C54.4263 7.18181 53 5.7952 53 4.0909C53 2.38661 54.4263 1 56.1793 1H73.1128C74.8658 1 76.2921 2.38661 76.2921 4.0909C76.2921 4.73885 76.0855 5.34057 75.7337 5.83794H81.2685C83.0215 5.83794 84.4478 7.22454 84.4478 8.92884C84.4478 10.6331 83.0215 12.0197 81.2685 12.0197H79.4691ZM83.0655 8.92884C83.0655 7.96555 82.2594 7.18181 81.2685 7.18181H64.335C63.3441 7.18181 62.538 7.96555 62.538 8.92884C62.538 9.89213 63.3441 10.6759 64.335 10.6759H76.845H81.2685C82.2594 10.6759 83.0655 9.89213 83.0655 8.92884ZM54.3823 4.0909C54.3823 5.05419 55.1884 5.83794 56.1793 5.83794H73.1128C74.1037 5.83794 74.9098 5.05419 74.9098 4.0909C74.9098 3.12762 74.1037 2.34387 73.1128 2.34387H56.1793C55.1884 2.34387 54.3823 3.12762 54.3823 4.0909ZM76.845 12.0197H59.9116C58.9208 12.0197 58.1146 12.8035 58.1146 13.7668C58.1146 14.7301 58.9208 15.5138 59.9116 15.5138H68.3232C70.4515 13.4395 73.3931 12.1542 76.6378 12.1542C76.9717 12.1542 77.3022 12.1686 77.6292 12.1953C77.39 12.0826 77.1234 12.0197 76.845 12.0197ZM67.1422 16.8577H59.9116C58.9207 16.8577 58.1146 17.6414 58.1146 18.6047C58.1146 19.5681 58.9207 20.3517 59.9116 20.3517H65.3657C65.7509 19.0814 66.3576 17.9027 67.1422 16.8577ZM65.0483 21.6956H59.9116C58.9207 21.6956 58.1146 22.4793 58.1146 23.4426C58.1146 24.406 58.9207 25.1897 59.9116 25.1897H65.0057C64.9287 24.6627 64.888 24.1245 64.888 23.5771C64.888 22.9363 64.9435 22.3079 65.0483 21.6956ZM58.1146 28.2806C58.1146 29.2439 58.9207 30.0276 59.9116 30.0276H66.9462C66.2032 28.9758 65.6366 27.7977 65.2879 26.5335H59.9116C58.9207 26.5335 58.1146 27.3172 58.1146 28.2806ZM66.2704 23.5771C66.2704 29.1347 70.9212 33.6561 76.6378 33.6561C82.3543 33.6561 87.0052 29.1347 87.0052 23.5771C87.0052 18.0195 82.3543 13.4981 76.6378 13.4981C70.9212 13.4981 66.2704 18.0195 66.2704 23.5771ZM74.8747 21.2802C74.8747 22.0967 75.6641 22.7609 76.6344 22.7609C78.4869 22.7609 79.9939 24.1228 79.9939 25.7969C79.9939 27.2219 78.9017 28.42 77.4343 28.7452V29.0811C77.4343 29.5105 77.0761 29.8588 76.6344 29.8588C76.1928 29.8588 75.8346 29.5105 75.8346 29.0811V28.7452C74.3671 28.42 73.275 27.2219 73.275 25.7969C73.275 25.3675 73.6332 25.0193 74.0749 25.0193C74.5166 25.0193 74.8747 25.3675 74.8747 25.7969C74.8747 26.6134 75.6641 27.2776 76.6344 27.2776C77.6048 27.2776 78.3941 26.6134 78.3941 25.7969C78.3941 24.9804 77.6048 24.3161 76.6344 24.3161C74.782 24.3161 73.275 22.9542 73.275 21.2802C73.275 19.8553 74.3671 18.6571 75.8346 18.3319V17.9275C75.8346 17.4981 76.1928 17.1499 76.6344 17.1499C77.0761 17.1499 77.4343 17.4981 77.4343 17.9275V18.3319C78.9017 18.6571 79.9939 19.8553 79.9939 21.2802C79.9939 21.7096 79.6357 22.0579 79.194 22.0579C78.7523 22.0579 78.3941 21.7096 78.3941 21.2802C78.3941 20.4637 77.6048 19.7995 76.6344 19.7995C75.6641 19.7995 74.8747 20.4637 74.8747 21.2802Z" fill="#FF872C"/>
<path d="M79.7762 12.5686L79.5466 12.6677L79.5945 12.7785L79.7111 12.8099L79.7762 12.5686ZM79.4691 12.0197V11.7697H78.9874L79.2647 12.1637L79.4691 12.0197ZM68.0569 31.3715L68.2371 31.1982L68.1634 31.1215H68.0569V31.3715ZM57.9359 25.8616L58.0889 26.0594L58.3445 25.8616L58.0889 25.6639L57.9359 25.8616ZM57.9359 21.0237L58.0889 21.2214L58.3445 21.0237L58.0889 20.8259L57.9359 21.0237ZM57.9359 16.1857L58.0889 16.3835L58.3445 16.1857L58.0889 15.988L57.9359 16.1857ZM61.7142 10.6759V10.9259H62.1973L61.9182 10.5315L61.7142 10.6759ZM61.7142 7.18181L61.9182 7.32619L62.1973 6.93181H61.7142V7.18181ZM75.7337 5.83794L75.5296 5.69355L75.2505 6.08794H75.7337V5.83794ZM68.3232 15.5138V15.7638H68.4248L68.4977 15.6928L68.3232 15.5138ZM77.6292 12.1953L77.6088 12.4444L77.7357 11.9691L77.6292 12.1953ZM67.1422 16.8577L67.3421 17.0078L67.6425 16.6077H67.1422V16.8577ZM65.3657 20.3517V20.6017H65.5511L65.6049 20.4243L65.3657 20.3517ZM65.0483 21.6956L65.2947 21.7378L65.3448 21.4456H65.0483V21.6956ZM65.0057 25.1897V25.4397H65.2948L65.253 25.1536L65.0057 25.1897ZM66.9462 30.0276V30.2776H67.4288L67.1504 29.8834L66.9462 30.0276ZM65.2879 26.5335L65.5289 26.4671L65.4782 26.2835H65.2879V26.5335ZM77.4343 28.7452L77.3802 28.5011L77.1843 28.5445V28.7452H77.4343ZM75.8346 28.7452H76.0846V28.5445L75.8887 28.5011L75.8346 28.7452ZM75.8346 18.3319L75.8887 18.576L76.0846 18.5326V18.3319H75.8346ZM77.4343 18.3319H77.1843V18.5326L77.3802 18.576L77.4343 18.3319ZM80.0057 12.4695C79.9148 12.2589 79.8033 12.0602 79.6735 11.8758L79.2647 12.1637C79.3747 12.3199 79.4693 12.4886 79.5466 12.6677L80.0057 12.4695ZM88.6375 23.5771C88.6375 18.2145 84.9031 13.6928 79.8413 12.3272L79.7111 12.8099C84.5691 14.1206 88.1375 18.4552 88.1375 23.5771H88.6375ZM76.6378 35.25C83.2479 35.25 88.6375 30.0204 88.6375 23.5771H88.1375C88.1375 29.731 82.9852 34.75 76.6378 34.75V35.25ZM67.8767 31.5448C70.0683 33.8237 73.1854 35.25 76.6378 35.25V34.75C73.3252 34.75 70.3371 33.3819 68.2371 31.1982L67.8767 31.5448ZM59.9116 31.6215H68.0569V31.1215H59.9116V31.6215ZM56.4823 28.2806C56.4823 30.1295 58.0272 31.6215 59.9116 31.6215V31.1215C58.2899 31.1215 56.9823 29.8402 56.9823 28.2806H56.4823ZM57.783 25.6639C56.9933 26.2746 56.4823 27.2192 56.4823 28.2806H56.9823C56.9823 27.3844 57.4131 26.582 58.0889 26.0594L57.783 25.6639ZM56.4823 23.4426C56.4823 24.5041 56.9933 25.4486 57.783 26.0594L58.0889 25.6639C57.4131 25.1412 56.9823 24.3388 56.9823 23.4426H56.4823ZM57.783 20.8259C56.9933 21.4367 56.4823 22.3812 56.4823 23.4426H56.9823C56.9823 22.5465 57.4131 21.7441 58.0889 21.2214L57.783 20.8259ZM56.4823 18.6047C56.4823 19.6661 56.9933 20.6107 57.783 21.2214L58.0889 20.8259C57.4131 20.3033 56.9823 19.5009 56.9823 18.6047H56.4823ZM57.783 15.988C56.9933 16.5987 56.4823 17.5433 56.4823 18.6047H56.9823C56.9823 17.7085 57.4131 16.9062 58.0889 16.3835L57.783 15.988ZM56.4823 13.7668C56.4823 14.8282 56.9933 15.7727 57.783 16.3835L58.0889 15.988C57.4131 15.4653 56.9823 14.663 56.9823 13.7668H56.4823ZM59.9116 10.4259C58.0272 10.4259 56.4823 11.9178 56.4823 13.7668H56.9823C56.9823 12.2071 58.2899 10.9259 59.9116 10.9259V10.4259ZM61.7142 10.4259H59.9116V10.9259H61.7142V10.4259ZM60.9057 8.92884C60.9057 9.63092 61.1297 10.2827 61.5101 10.8203L61.9182 10.5315C61.5947 10.0743 61.4057 9.52265 61.4057 8.92884H60.9057ZM61.5101 7.03742C61.1298 7.57498 60.9057 8.22674 60.9057 8.92884H61.4057C61.4057 8.33504 61.5948 7.78337 61.9182 7.32619L61.5101 7.03742ZM56.1793 7.43181H61.7142V6.93181H56.1793V7.43181ZM52.75 4.0909C52.75 5.93987 54.2949 7.43181 56.1793 7.43181V6.93181C54.5577 6.93181 53.25 5.65053 53.25 4.0909H52.75ZM56.1793 0.75C54.2949 0.75 52.75 2.24193 52.75 4.0909H53.25C53.25 2.53128 54.5577 1.25 56.1793 1.25V0.75ZM73.1128 0.75H56.1793V1.25H73.1128V0.75ZM76.5421 4.0909C76.5421 2.24193 74.9972 0.75 73.1128 0.75V1.25C74.7345 1.25 76.0421 2.53128 76.0421 4.0909H76.5421ZM75.9377 5.98232C76.318 5.44476 76.5421 4.793 76.5421 4.0909H76.0421C76.0421 4.6847 75.853 5.23637 75.5296 5.69355L75.9377 5.98232ZM81.2685 5.58794H75.7337V6.08794H81.2685V5.58794ZM84.6978 8.92884C84.6978 7.07987 83.1529 5.58794 81.2685 5.58794V6.08794C82.8901 6.08794 84.1978 7.36921 84.1978 8.92884H84.6978ZM81.2685 12.2697C83.1529 12.2697 84.6978 10.7778 84.6978 8.92884H84.1978C84.1978 10.4885 82.8901 11.7697 81.2685 11.7697V12.2697ZM79.4691 12.2697H81.2685V11.7697H79.4691V12.2697ZM81.2685 7.43181C82.128 7.43181 82.8155 8.11022 82.8155 8.92884H83.3155C83.3155 7.82089 82.3908 6.93181 81.2685 6.93181V7.43181ZM64.335 7.43181H81.2685V6.93181H64.335V7.43181ZM62.788 8.92884C62.788 8.11022 63.4755 7.43181 64.335 7.43181V6.93181C63.2127 6.93181 62.288 7.82089 62.288 8.92884H62.788ZM64.335 10.4259C63.4755 10.4259 62.788 9.74746 62.788 8.92884H62.288C62.288 10.0368 63.2127 10.9259 64.335 10.9259V10.4259ZM76.845 10.4259H64.335V10.9259H76.845V10.4259ZM81.2685 10.4259H76.845V10.9259H81.2685V10.4259ZM82.8155 8.92884C82.8155 9.74746 82.128 10.4259 81.2685 10.4259V10.9259C82.3908 10.9259 83.3155 10.0368 83.3155 8.92884H82.8155ZM56.1793 5.58794C55.3198 5.58794 54.6323 4.90952 54.6323 4.0909H54.1323C54.1323 5.19886 55.057 6.08794 56.1793 6.08794V5.58794ZM73.1128 5.58794H56.1793V6.08794H73.1128V5.58794ZM74.6598 4.0909C74.6598 4.90952 73.9723 5.58794 73.1128 5.58794V6.08794C74.2351 6.08794 75.1598 5.19886 75.1598 4.0909H74.6598ZM73.1128 2.59387C73.9723 2.59387 74.6598 3.27228 74.6598 4.0909H75.1598C75.1598 2.98295 74.2351 2.09387 73.1128 2.09387V2.59387ZM56.1793 2.59387H73.1128V2.09387H56.1793V2.59387ZM54.6323 4.0909C54.6323 3.27228 55.3198 2.59387 56.1793 2.59387V2.09387C55.057 2.09387 54.1323 2.98295 54.1323 4.0909H54.6323ZM59.9116 12.2697H76.845V11.7697H59.9116V12.2697ZM58.3646 13.7668C58.3646 12.9482 59.0521 12.2697 59.9116 12.2697V11.7697C58.7894 11.7697 57.8646 12.6588 57.8646 13.7668H58.3646ZM59.9116 15.2638C59.0521 15.2638 58.3646 14.5854 58.3646 13.7668H57.8646C57.8646 14.8747 58.7894 15.7638 59.9116 15.7638V15.2638ZM68.3232 15.2638H59.9116V15.7638H68.3232V15.2638ZM76.6378 11.9042C73.3261 11.9042 70.3224 13.2163 68.1487 15.3348L68.4977 15.6928C70.5807 13.6628 73.4601 12.4042 76.6378 12.4042V11.9042ZM77.6495 11.9461C77.3162 11.9189 76.9789 11.9042 76.6378 11.9042V12.4042C76.9645 12.4042 77.2883 12.4183 77.6088 12.4444L77.6495 11.9461ZM76.845 12.2697C77.0856 12.2697 77.3159 12.3241 77.5226 12.4214L77.7357 11.9691C77.4642 11.8412 77.1613 11.7697 76.845 11.7697V12.2697ZM59.9116 17.1077H67.1422V16.6077H59.9116V17.1077ZM58.3646 18.6047C58.3646 17.7861 59.0521 17.1077 59.9116 17.1077V16.6077C58.7893 16.6077 57.8646 17.4968 57.8646 18.6047H58.3646ZM59.9116 20.1017C59.0521 20.1017 58.3646 19.4234 58.3646 18.6047H57.8646C57.8646 19.7127 58.7893 20.6017 59.9116 20.6017V20.1017ZM65.3657 20.1017H59.9116V20.6017H65.3657V20.1017ZM66.9423 16.7076C66.1406 17.7753 65.5204 18.9802 65.1265 20.2792L65.6049 20.4243C65.9815 19.1827 66.5745 18.0301 67.3421 17.0078L66.9423 16.7076ZM59.9116 21.9456H65.0483V21.4456H59.9116V21.9456ZM58.3646 23.4426C58.3646 22.624 59.0521 21.9456 59.9116 21.9456V21.4456C58.7893 21.4456 57.8646 22.3346 57.8646 23.4426H58.3646ZM59.9116 24.9397C59.0521 24.9397 58.3646 24.2613 58.3646 23.4426H57.8646C57.8646 24.5507 58.7893 25.4397 59.9116 25.4397V24.9397ZM65.0057 24.9397H59.9116V25.4397H65.0057V24.9397ZM64.638 23.5771C64.638 24.1369 64.6797 24.6872 64.7583 25.2258L65.253 25.1536C65.1778 24.6382 65.138 24.112 65.138 23.5771H64.638ZM64.8019 21.6534C64.6947 22.2794 64.638 22.9218 64.638 23.5771H65.138C65.138 22.9507 65.1922 22.3365 65.2947 21.7378L64.8019 21.6534ZM59.9116 29.7776C59.0521 29.7776 58.3646 29.0993 58.3646 28.2806H57.8646C57.8646 29.3886 58.7893 30.2776 59.9116 30.2776V29.7776ZM66.9462 29.7776H59.9116V30.2776H66.9462V29.7776ZM65.0469 26.6C65.4035 27.8927 65.9828 29.0971 66.742 30.1718L67.1504 29.8834C66.4236 28.8545 65.8697 27.7026 65.5289 26.4671L65.0469 26.6ZM59.9116 26.7835H65.2879V26.2835H59.9116V26.7835ZM58.3646 28.2806C58.3646 27.4619 59.0521 26.7835 59.9116 26.7835V26.2835C58.7893 26.2835 57.8646 27.1726 57.8646 28.2806H58.3646ZM76.6378 33.4061C71.0525 33.4061 66.5204 28.99 66.5204 23.5771H66.0204C66.0204 29.2794 70.7898 33.9061 76.6378 33.9061V33.4061ZM86.7552 23.5771C86.7552 28.99 82.223 33.4061 76.6378 33.4061V33.9061C82.4857 33.9061 87.2552 29.2794 87.2552 23.5771H86.7552ZM76.6378 13.7481C82.223 13.7481 86.7552 18.1642 86.7552 23.5771H87.2552C87.2552 17.8748 82.4857 13.2481 76.6378 13.2481V13.7481ZM66.5204 23.5771C66.5204 18.1642 71.0525 13.7481 76.6378 13.7481V13.2481C70.7898 13.2481 66.0204 17.8748 66.0204 23.5771H66.5204ZM76.6344 22.5109C75.76 22.5109 75.1247 21.9199 75.1247 21.2802H74.6247C74.6247 22.2734 75.5682 23.0109 76.6344 23.0109V22.5109ZM80.2439 25.7969C80.2439 23.9615 78.6005 22.5109 76.6344 22.5109V23.0109C78.3732 23.0109 79.7439 24.2841 79.7439 25.7969H80.2439ZM77.4884 28.9893C79.0507 28.6431 80.2439 27.358 80.2439 25.7969H79.7439C79.7439 27.0857 78.7528 28.197 77.3802 28.5011L77.4884 28.9893ZM77.6843 29.0811V28.7452H77.1843V29.0811H77.6843ZM76.6344 30.1088C77.2075 30.1088 77.6843 29.6552 77.6843 29.0811H77.1843C77.1843 29.3659 76.9448 29.6088 76.6344 29.6088V30.1088ZM75.5846 29.0811C75.5846 29.6552 76.0614 30.1088 76.6344 30.1088V29.6088C76.3241 29.6088 76.0846 29.3659 76.0846 29.0811H75.5846ZM75.5846 28.7452V29.0811H76.0846V28.7452H75.5846ZM73.025 25.7969C73.025 27.358 74.2182 28.6431 75.7805 28.9893L75.8887 28.5011C74.5161 28.197 73.525 27.0857 73.525 25.7969H73.025ZM74.0749 24.7693C73.5018 24.7693 73.025 25.2228 73.025 25.7969H73.525C73.525 25.5121 73.7646 25.2693 74.0749 25.2693V24.7693ZM75.1247 25.7969C75.1247 25.2228 74.6479 24.7693 74.0749 24.7693V25.2693C74.3852 25.2693 74.6247 25.5121 74.6247 25.7969H75.1247ZM76.6344 27.0276C75.76 27.0276 75.1247 26.4366 75.1247 25.7969H74.6247C74.6247 26.7901 75.5682 27.5276 76.6344 27.5276V27.0276ZM78.1441 25.7969C78.1441 26.4366 77.5089 27.0276 76.6344 27.0276V27.5276C77.7007 27.5276 78.6441 26.7901 78.6441 25.7969H78.1441ZM76.6344 24.5661C77.5089 24.5661 78.1441 25.1571 78.1441 25.7969H78.6441C78.6441 24.8036 77.7007 24.0661 76.6344 24.0661V24.5661ZM73.025 21.2802C73.025 23.1155 74.6684 24.5661 76.6344 24.5661V24.0661C74.8957 24.0661 73.525 22.7929 73.525 21.2802H73.025ZM75.7805 18.0878C74.2182 18.4341 73.025 19.7191 73.025 21.2802H73.525C73.525 19.9915 74.5161 18.8802 75.8887 18.576L75.7805 18.0878ZM75.5846 17.9275V18.3319H76.0846V17.9275H75.5846ZM76.6344 16.8999C76.0614 16.8999 75.5846 17.3534 75.5846 17.9275H76.0846C76.0846 17.6427 76.3241 17.3999 76.6344 17.3999V16.8999ZM77.6843 17.9275C77.6843 17.3534 77.2075 16.8999 76.6344 16.8999V17.3999C76.9448 17.3999 77.1843 17.6427 77.1843 17.9275H77.6843ZM77.6843 18.3319V17.9275H77.1843V18.3319H77.6843ZM80.2439 21.2802C80.2439 19.7191 79.0507 18.4341 77.4884 18.0878L77.3802 18.576C78.7528 18.8802 79.7439 19.9915 79.7439 21.2802H80.2439ZM79.194 22.3079C79.7671 22.3079 80.2439 21.8543 80.2439 21.2802H79.7439C79.7439 21.565 79.5043 21.8079 79.194 21.8079V22.3079ZM78.1441 21.2802C78.1441 21.8543 78.6209 22.3079 79.194 22.3079V21.8079C78.8837 21.8079 78.6441 21.565 78.6441 21.2802H78.1441ZM76.6344 20.0495C77.5089 20.0495 78.1441 20.6405 78.1441 21.2802H78.6441C78.6441 20.287 77.7007 19.5495 76.6344 19.5495V20.0495ZM75.1247 21.2802C75.1247 20.6405 75.76 20.0495 76.6344 20.0495V19.5495C75.5682 19.5495 74.6247 20.287 74.6247 21.2802H75.1247Z" fill="#FF872C"/>
<path d="M7.32375 60.78H11.9238V63H4.52375V49.04H7.32375V60.78ZM15.5234 50.6C15.0301 50.6 14.6168 50.4467 14.2834 50.14C13.9634 49.82 13.8034 49.4267 13.8034 48.96C13.8034 48.4933 13.9634 48.1067 14.2834 47.8C14.6168 47.48 15.0301 47.32 15.5234 47.32C16.0168 47.32 16.4234 47.48 16.7434 47.8C17.0768 48.1067 17.2434 48.4933 17.2434 48.96C17.2434 49.4267 17.0768 49.82 16.7434 50.14C16.4234 50.4467 16.0168 50.6 15.5234 50.6ZM16.9034 51.92V63H14.1034V51.92H16.9034ZM26.2098 51.76C27.5298 51.76 28.5965 52.18 29.4098 53.02C30.2232 53.8467 30.6298 55.0067 30.6298 56.5V63H27.8298V56.88C27.8298 56 27.6098 55.3267 27.1698 54.86C26.7298 54.38 26.1298 54.14 25.3698 54.14C24.5965 54.14 23.9832 54.38 23.5298 54.86C23.0898 55.3267 22.8698 56 22.8698 56.88V63H20.0698V51.92H22.8698V53.3C23.2432 52.82 23.7165 52.4467 24.2898 52.18C24.8765 51.9 25.5165 51.76 26.2098 51.76ZM37.9325 63.18C37.0258 63.18 36.2125 63.02 35.4925 62.7C34.7725 62.3667 34.1992 61.92 33.7725 61.36C33.3592 60.8 33.1325 60.18 33.0925 59.5H35.9125C35.9658 59.9267 36.1725 60.28 36.5325 60.56C36.9058 60.84 37.3658 60.98 37.9125 60.98C38.4458 60.98 38.8592 60.8733 39.1525 60.66C39.4592 60.4467 39.6125 60.1733 39.6125 59.84C39.6125 59.48 39.4258 59.2133 39.0525 59.04C38.6925 58.8533 38.1125 58.6533 37.3125 58.44C36.4858 58.24 35.8058 58.0333 35.2725 57.82C34.7525 57.6067 34.2992 57.28 33.9125 56.84C33.5392 56.4 33.3525 55.8067 33.3525 55.06C33.3525 54.4467 33.5258 53.8867 33.8725 53.38C34.2325 52.8733 34.7392 52.4733 35.3925 52.18C36.0592 51.8867 36.8392 51.74 37.7325 51.74C39.0525 51.74 40.1058 52.0733 40.8925 52.74C41.6792 53.3933 42.1125 54.28 42.1925 55.4H39.5125C39.4725 54.96 39.2858 54.6133 38.9525 54.36C38.6325 54.0933 38.1992 53.96 37.6525 53.96C37.1458 53.96 36.7525 54.0533 36.4725 54.24C36.2058 54.4267 36.0725 54.6867 36.0725 55.02C36.0725 55.3933 36.2592 55.68 36.6325 55.88C37.0058 56.0667 37.5858 56.26 38.3725 56.46C39.1725 56.66 39.8325 56.8667 40.3525 57.08C40.8725 57.2933 41.3192 57.6267 41.6925 58.08C42.0792 58.52 42.2792 59.1067 42.2925 59.84C42.2925 60.48 42.1125 61.0533 41.7525 61.56C41.4058 62.0667 40.8992 62.4667 40.2325 62.76C39.5792 63.04 38.8125 63.18 37.9325 63.18ZM53.6109 49.04V51.3H47.7909V54.88H52.2509V57.1H47.7909V63H44.9909V49.04H53.6109ZM57.4164 50.6C56.9231 50.6 56.5097 50.4467 56.1764 50.14C55.8564 49.82 55.6964 49.4267 55.6964 48.96C55.6964 48.4933 55.8564 48.1067 56.1764 47.8C56.5097 47.48 56.9231 47.32 57.4164 47.32C57.9097 47.32 58.3164 47.48 58.6364 47.8C58.9697 48.1067 59.1364 48.4933 59.1364 48.96C59.1364 49.4267 58.9697 49.82 58.6364 50.14C58.3164 50.4467 57.9097 50.6 57.4164 50.6ZM58.7964 51.92V63H55.9964V51.92H58.7964ZM68.1028 51.76C69.4228 51.76 70.4895 52.18 71.3028 53.02C72.1162 53.8467 72.5228 55.0067 72.5228 56.5V63H69.7228V56.88C69.7228 56 69.5028 55.3267 69.0628 54.86C68.6228 54.38 68.0228 54.14 67.2628 54.14C66.4895 54.14 65.8762 54.38 65.4228 54.86C64.9828 55.3267 64.7628 56 64.7628 56.88V63H61.9628V51.92H64.7628V53.3C65.1362 52.82 65.6095 52.4467 66.1828 52.18C66.7695 51.9 67.4095 51.76 68.1028 51.76ZM74.8655 57.42C74.8655 56.3 75.0855 55.3067 75.5255 54.44C75.9788 53.5733 76.5855 52.9067 77.3455 52.44C78.1188 51.9733 78.9788 51.74 79.9255 51.74C80.7521 51.74 81.4721 51.9067 82.0855 52.24C82.7121 52.5733 83.2121 52.9933 83.5855 53.5V51.92H86.4055V63H83.5855V61.38C83.2255 61.9 82.7255 62.3333 82.0855 62.68C81.4588 63.0133 80.7321 63.18 79.9055 63.18C78.9721 63.18 78.1188 62.94 77.3455 62.46C76.5855 61.98 75.9788 61.3067 75.5255 60.44C75.0855 59.56 74.8655 58.5533 74.8655 57.42ZM83.5855 57.46C83.5855 56.78 83.4521 56.2 83.1855 55.72C82.9188 55.2267 82.5588 54.8533 82.1055 54.6C81.6521 54.3333 81.1655 54.2 80.6455 54.2C80.1255 54.2 79.6455 54.3267 79.2055 54.58C78.7655 54.8333 78.4055 55.2067 78.1255 55.7C77.8588 56.18 77.7255 56.7533 77.7255 57.42C77.7255 58.0867 77.8588 58.6733 78.1255 59.18C78.4055 59.6733 78.7655 60.0533 79.2055 60.32C79.6588 60.5867 80.1388 60.72 80.6455 60.72C81.1655 60.72 81.6521 60.5933 82.1055 60.34C82.5588 60.0733 82.9188 59.7 83.1855 59.22C83.4521 58.7267 83.5855 58.14 83.5855 57.46ZM95.6802 51.76C97.0002 51.76 98.0668 52.18 98.8802 53.02C99.6935 53.8467 100.1 55.0067 100.1 56.5V63H97.3002V56.88C97.3002 56 97.0802 55.3267 96.6402 54.86C96.2002 54.38 95.6002 54.14 94.8402 54.14C94.0668 54.14 93.4535 54.38 93.0002 54.86C92.5602 55.3267 92.3402 56 92.3402 56.88V63H89.5402V51.92H92.3402V53.3C92.7135 52.82 93.1868 52.4467 93.7602 52.18C94.3468 51.9 94.9868 51.76 95.6802 51.76ZM102.443 57.46C102.443 56.3133 102.676 55.3133 103.143 54.46C103.609 53.5933 104.256 52.9267 105.083 52.46C105.909 51.98 106.856 51.74 107.923 51.74C109.296 51.74 110.429 52.0867 111.323 52.78C112.229 53.46 112.836 54.42 113.143 55.66H110.123C109.963 55.18 109.689 54.8067 109.303 54.54C108.929 54.26 108.463 54.12 107.903 54.12C107.103 54.12 106.469 54.4133 106.003 55C105.536 55.5733 105.303 56.3933 105.303 57.46C105.303 58.5133 105.536 59.3333 106.003 59.92C106.469 60.4933 107.103 60.78 107.903 60.78C109.036 60.78 109.776 60.2733 110.123 59.26H113.143C112.836 60.46 112.229 61.4133 111.323 62.12C110.416 62.8267 109.283 63.18 107.923 63.18C106.856 63.18 105.909 62.9467 105.083 62.48C104.256 62 103.609 61.3333 103.143 60.48C102.676 59.6133 102.443 58.6067 102.443 57.46ZM125.894 57.22C125.894 57.62 125.867 57.98 125.814 58.3H117.714C117.781 59.1 118.061 59.7267 118.554 60.18C119.047 60.6333 119.654 60.86 120.374 60.86C121.414 60.86 122.154 60.4133 122.594 59.52H125.614C125.294 60.5867 124.681 61.4667 123.774 62.16C122.867 62.84 121.754 63.18 120.434 63.18C119.367 63.18 118.407 62.9467 117.554 62.48C116.714 62 116.054 61.3267 115.574 60.46C115.107 59.5933 114.874 58.5933 114.874 57.46C114.874 56.3133 115.107 55.3067 115.574 54.44C116.041 53.5733 116.694 52.9067 117.534 52.44C118.374 51.9733 119.341 51.74 120.434 51.74C121.487 51.74 122.427 51.9667 123.254 52.42C124.094 52.8733 124.741 53.52 125.194 54.36C125.661 55.1867 125.894 56.14 125.894 57.22ZM122.994 56.42C122.981 55.7 122.721 55.1267 122.214 54.7C121.707 54.26 121.087 54.04 120.354 54.04C119.661 54.04 119.074 54.2533 118.594 54.68C118.127 55.0933 117.841 55.6733 117.734 56.42H122.994ZM132.578 63.18C131.671 63.18 130.858 63.02 130.138 62.7C129.418 62.3667 128.844 61.92 128.418 61.36C128.004 60.8 127.778 60.18 127.738 59.5H130.558C130.611 59.9267 130.818 60.28 131.178 60.56C131.551 60.84 132.011 60.98 132.558 60.98C133.091 60.98 133.504 60.8733 133.798 60.66C134.104 60.4467 134.258 60.1733 134.258 59.84C134.258 59.48 134.071 59.2133 133.698 59.04C133.338 58.8533 132.758 58.6533 131.958 58.44C131.131 58.24 130.451 58.0333 129.918 57.82C129.398 57.6067 128.944 57.28 128.558 56.84C128.184 56.4 127.998 55.8067 127.998 55.06C127.998 54.4467 128.171 53.8867 128.518 53.38C128.878 52.8733 129.384 52.4733 130.038 52.18C130.704 51.8867 131.484 51.74 132.378 51.74C133.698 51.74 134.751 52.0733 135.538 52.74C136.324 53.3933 136.758 54.28 136.838 55.4H134.158C134.118 54.96 133.931 54.6133 133.598 54.36C133.278 54.0933 132.844 53.96 132.298 53.96C131.791 53.96 131.398 54.0533 131.118 54.24C130.851 54.4267 130.718 54.6867 130.718 55.02C130.718 55.3933 130.904 55.68 131.278 55.88C131.651 56.0667 132.231 56.26 133.018 56.46C133.818 56.66 134.478 56.8667 134.998 57.08C135.518 57.2933 135.964 57.6267 136.338 58.08C136.724 58.52 136.924 59.1067 136.938 59.84C136.938 60.48 136.758 61.0533 136.398 61.56C136.051 62.0667 135.544 62.4667 134.878 62.76C134.224 63.04 133.458 63.18 132.578 63.18Z" fill="white"/>
</svg>
