<svg width="1284" height="2776" viewBox="0 0 1284 2776" fill="none" xmlns="http://www.w3.org/2000/svg">
<rect width="1284" height="2776" fill="#5636D3"/>
<path fill-rule="evenodd" clip-rule="evenodd" d="M751.851 1239.57C753.359 1241.72 754.655 1244.03 755.712 1246.48C818.083 1263.3 864 1318.99 864 1384.91C864 1464.11 797.718 1528.55 716.246 1528.55C673.712 1528.55 635.325 1510.98 608.342 1482.92H505.914C483.869 1482.92 465.934 1465.49 465.934 1444.06C465.934 1431.75 471.856 1420.76 481.07 1413.64C471.856 1406.51 465.934 1395.53 465.934 1383.22C465.934 1370.91 471.856 1359.93 481.07 1352.8C471.856 1345.67 465.934 1334.69 465.934 1322.38C465.934 1310.07 471.856 1299.09 481.07 1291.96C471.856 1284.84 465.934 1273.85 465.934 1261.54C465.934 1240.11 483.869 1222.67 505.914 1222.67H528.581C524.155 1216.42 521.558 1208.85 521.558 1200.71C521.558 1192.56 524.156 1184.99 528.581 1178.74H458.98C436.936 1178.74 419 1161.3 419 1139.87C419 1118.44 436.936 1101 458.98 1101H671.919C693.964 1101 711.9 1118.44 711.9 1139.87C711.9 1148.02 709.302 1155.58 704.877 1161.84H774.478C796.523 1161.84 814.458 1179.27 814.458 1200.71C814.458 1222.14 796.523 1239.57 774.478 1239.57H751.851ZM797.075 1200.71C797.075 1188.59 786.939 1178.74 774.478 1178.74H561.539C549.078 1178.74 538.941 1188.59 538.941 1200.71C538.941 1212.82 549.078 1222.67 561.539 1222.67H718.853H774.478C786.939 1222.67 797.075 1212.82 797.075 1200.71ZM436.383 1139.87C436.383 1151.98 446.52 1161.84 458.98 1161.84H671.919C684.38 1161.84 694.517 1151.98 694.517 1139.87C694.517 1127.75 684.38 1117.9 671.919 1117.9H458.98C446.52 1117.9 436.383 1127.75 436.383 1139.87ZM718.853 1239.57H505.914C493.454 1239.57 483.316 1249.43 483.316 1261.54C483.316 1273.66 493.454 1283.51 505.914 1283.51H611.69C638.454 1257.43 675.445 1241.26 716.246 1241.26C720.446 1241.26 724.602 1241.45 728.713 1241.78C725.706 1240.36 722.354 1239.57 718.853 1239.57ZM596.839 1300.41H505.914C493.453 1300.41 483.316 1310.27 483.316 1322.38C483.316 1334.49 493.453 1344.35 505.914 1344.35H574.499C579.344 1328.38 586.972 1313.55 596.839 1300.41ZM570.508 1361.25H505.914C493.453 1361.25 483.316 1371.1 483.316 1383.22C483.316 1395.33 493.453 1405.19 505.914 1405.19H569.972C569.005 1398.56 568.493 1391.79 568.493 1384.91C568.493 1376.85 569.19 1368.95 570.508 1361.25ZM483.316 1444.06C483.316 1456.17 493.453 1466.02 505.914 1466.02H594.374C585.031 1452.8 577.906 1437.98 573.521 1422.09H505.914C493.453 1422.09 483.316 1431.94 483.316 1444.06ZM585.876 1384.91C585.876 1454.8 644.36 1511.65 716.246 1511.65C788.133 1511.65 846.617 1454.8 846.617 1384.91C846.617 1315.02 788.133 1258.16 716.246 1258.16C644.36 1258.16 585.876 1315.02 585.876 1384.91ZM694.075 1356.03C694.075 1366.29 704.002 1374.65 716.203 1374.65C739.498 1374.65 758.449 1391.77 758.449 1412.82C758.449 1430.74 744.715 1445.81 726.262 1449.9V1454.12C726.262 1459.52 721.758 1463.9 716.203 1463.9C710.649 1463.9 706.145 1459.52 706.145 1454.12V1449.9C687.692 1445.81 673.958 1430.74 673.958 1412.82C673.958 1407.42 678.463 1403.04 684.017 1403.04C689.571 1403.04 694.075 1407.42 694.075 1412.82C694.075 1423.09 704.002 1431.44 716.203 1431.44C728.405 1431.44 738.332 1423.09 738.332 1412.82C738.332 1402.56 728.405 1394.2 716.203 1394.2C692.909 1394.2 673.958 1377.08 673.958 1356.03C673.958 1338.11 687.692 1323.04 706.145 1318.95V1313.86C706.145 1308.47 710.649 1304.09 716.203 1304.09C721.758 1304.09 726.262 1308.47 726.262 1313.86V1318.95C744.715 1323.04 758.449 1338.11 758.449 1356.03C758.449 1361.43 753.944 1365.8 748.39 1365.8C742.836 1365.8 738.332 1361.43 738.332 1356.03C738.332 1345.76 728.405 1337.41 716.203 1337.41C704.002 1337.41 694.075 1345.76 694.075 1356.03Z" fill="#FF872C"/>
<path d="M755.712 1246.48L755.483 1246.57L755.531 1246.69L755.647 1246.72L755.712 1246.48ZM751.851 1239.57V1239.32H751.369L751.646 1239.72L751.851 1239.57ZM608.342 1482.92L608.522 1482.75L608.448 1482.67H608.342V1482.92ZM481.07 1413.64L481.223 1413.83L481.478 1413.64L481.223 1413.44L481.07 1413.64ZM481.07 1352.8L481.223 1353L481.478 1352.8L481.223 1352.6L481.07 1352.8ZM481.07 1291.96L481.223 1292.16L481.478 1291.96L481.223 1291.76L481.07 1291.96ZM528.581 1222.67V1222.92H529.064L528.785 1222.53L528.581 1222.67ZM528.581 1178.74L528.785 1178.88L529.064 1178.49H528.581V1178.74ZM704.877 1161.84L704.673 1161.69L704.394 1162.09H704.877V1161.84ZM611.69 1283.51V1283.76H611.792L611.864 1283.69L611.69 1283.51ZM728.713 1241.78L728.693 1242.03L728.82 1241.55L728.713 1241.78ZM596.839 1300.41L597.039 1300.56L597.339 1300.16H596.839V1300.41ZM574.499 1344.35V1344.6H574.685L574.739 1344.42L574.499 1344.35ZM570.508 1361.25L570.755 1361.29L570.805 1361H570.508V1361.25ZM569.972 1405.19V1405.44H570.261L570.219 1405.15L569.972 1405.19ZM594.374 1466.02V1466.27H594.857L594.578 1465.88L594.374 1466.02ZM573.521 1422.09L573.762 1422.02L573.711 1421.84H573.521V1422.09ZM726.262 1449.9L726.208 1449.65L726.012 1449.7V1449.9H726.262ZM706.145 1449.9H706.395V1449.7L706.199 1449.65L706.145 1449.9ZM706.145 1318.95L706.199 1319.19L706.395 1319.15V1318.95H706.145ZM726.262 1318.95H726.012V1319.15L726.208 1319.19L726.262 1318.95ZM755.942 1246.38C754.877 1243.91 753.573 1241.59 752.055 1239.43L751.646 1239.72C753.144 1241.85 754.432 1244.14 755.483 1246.57L755.942 1246.38ZM864.25 1384.91C864.25 1318.87 818.25 1263.09 755.777 1246.23L755.647 1246.72C817.916 1263.52 863.75 1319.11 863.75 1384.91H864.25ZM716.246 1528.8C797.849 1528.8 864.25 1464.26 864.25 1384.91H863.75C863.75 1463.97 797.586 1528.3 716.246 1528.3V1528.8ZM608.162 1483.1C635.191 1511.2 673.642 1528.8 716.246 1528.8V1528.3C673.782 1528.3 635.46 1510.76 608.522 1482.75L608.162 1483.1ZM505.914 1483.17H608.342V1482.67H505.914V1483.17ZM465.684 1444.06C465.684 1465.63 483.738 1483.17 505.914 1483.17V1482.67C484 1482.67 466.184 1465.34 466.184 1444.06H465.684ZM480.917 1413.44C471.646 1420.61 465.684 1431.66 465.684 1444.06H466.184C466.184 1431.83 472.066 1420.92 481.223 1413.83L480.917 1413.44ZM465.684 1383.22C465.684 1395.61 471.646 1406.66 480.917 1413.83L481.223 1413.44C472.066 1406.36 466.184 1395.44 466.184 1383.22H465.684ZM480.917 1352.6C471.646 1359.77 465.684 1370.83 465.684 1383.22H466.184C466.184 1370.99 472.066 1360.08 481.223 1353L480.917 1352.6ZM465.684 1322.38C465.684 1334.77 471.646 1345.83 480.917 1353L481.223 1352.6C472.066 1345.52 466.184 1334.61 466.184 1322.38H465.684ZM480.917 1291.76C471.646 1298.93 465.684 1309.99 465.684 1322.38H466.184C466.184 1310.15 472.066 1299.24 481.223 1292.16L480.917 1291.76ZM465.684 1261.54C465.684 1273.93 471.646 1284.99 480.917 1292.16L481.223 1291.76C472.066 1284.68 466.184 1273.77 466.184 1261.54H465.684ZM505.914 1222.42C483.738 1222.42 465.684 1239.97 465.684 1261.54H466.184C466.184 1240.26 484 1222.92 505.914 1222.92V1222.42ZM528.581 1222.42H505.914V1222.92H528.581V1222.42ZM521.308 1200.71C521.308 1208.91 523.923 1216.52 528.377 1222.82L528.785 1222.53C524.388 1216.32 521.808 1208.8 521.808 1200.71H521.308ZM528.377 1178.59C523.924 1184.89 521.308 1192.5 521.308 1200.71H521.808C521.808 1192.61 524.389 1185.1 528.785 1178.88L528.377 1178.59ZM458.98 1178.99H528.581V1178.49H458.98V1178.99ZM418.75 1139.87C418.75 1161.44 436.804 1178.99 458.98 1178.99V1178.49C437.067 1178.49 419.25 1161.16 419.25 1139.87H418.75ZM458.98 1100.75C436.804 1100.75 418.75 1118.29 418.75 1139.87H419.25C419.25 1118.58 437.067 1101.25 458.98 1101.25V1100.75ZM671.919 1100.75H458.98V1101.25H671.919V1100.75ZM712.15 1139.87C712.15 1118.29 694.096 1100.75 671.919 1100.75V1101.25C693.833 1101.25 711.65 1118.58 711.65 1139.87H712.15ZM705.081 1161.98C709.534 1155.69 712.15 1148.07 712.15 1139.87H711.65C711.65 1147.96 709.069 1155.48 704.673 1161.69L705.081 1161.98ZM774.478 1161.59H704.877V1162.09H774.478V1161.59ZM814.708 1200.71C814.708 1179.13 796.654 1161.59 774.478 1161.59V1162.09C796.391 1162.09 814.208 1179.42 814.208 1200.71H814.708ZM774.478 1239.82C796.654 1239.82 814.708 1222.28 814.708 1200.71H814.208C814.208 1221.99 796.391 1239.32 774.478 1239.32V1239.82ZM751.851 1239.82H774.478V1239.32H751.851V1239.82ZM774.478 1178.99C786.807 1178.99 796.825 1188.74 796.825 1200.71H797.325C797.325 1188.45 787.07 1178.49 774.478 1178.49V1178.99ZM561.539 1178.99H774.478V1178.49H561.539V1178.99ZM539.191 1200.71C539.191 1188.74 549.209 1178.99 561.539 1178.99V1178.49C548.947 1178.49 538.691 1188.45 538.691 1200.71H539.191ZM561.539 1222.42C549.209 1222.42 539.191 1212.67 539.191 1200.71H538.691C538.691 1212.96 548.947 1222.92 561.539 1222.92V1222.42ZM718.853 1222.42H561.539V1222.92H718.853V1222.42ZM774.478 1222.42H718.853V1222.92H774.478V1222.42ZM796.825 1200.71C796.825 1212.67 786.807 1222.42 774.478 1222.42V1222.92C787.07 1222.92 797.325 1212.96 797.325 1200.71H796.825ZM458.98 1161.59C446.651 1161.59 436.633 1151.84 436.633 1139.87H436.133C436.133 1152.13 446.388 1162.09 458.98 1162.09V1161.59ZM671.919 1161.59H458.98V1162.09H671.919V1161.59ZM694.267 1139.87C694.267 1151.84 684.249 1161.59 671.919 1161.59V1162.09C684.512 1162.09 694.767 1152.13 694.767 1139.87H694.267ZM671.919 1118.15C684.249 1118.15 694.267 1127.9 694.267 1139.87H694.767C694.767 1127.61 684.512 1117.65 671.919 1117.65V1118.15ZM458.98 1118.15H671.919V1117.65H458.98V1118.15ZM436.633 1139.87C436.633 1127.9 446.651 1118.15 458.98 1118.15V1117.65C446.388 1117.65 436.133 1127.61 436.133 1139.87H436.633ZM505.914 1239.82H718.853V1239.32H505.914V1239.82ZM483.566 1261.54C483.566 1249.57 493.585 1239.82 505.914 1239.82V1239.32C493.323 1239.32 483.066 1249.28 483.066 1261.54H483.566ZM505.914 1283.26C493.585 1283.26 483.566 1273.51 483.566 1261.54H483.066C483.066 1273.8 493.323 1283.76 505.914 1283.76V1283.26ZM611.69 1283.26H505.914V1283.76H611.69V1283.26ZM716.246 1241.01C675.378 1241.01 638.325 1257.2 611.515 1283.33L611.864 1283.69C638.583 1257.65 675.512 1241.51 716.246 1241.51V1241.01ZM728.734 1241.53C724.616 1241.2 720.453 1241.01 716.246 1241.01V1241.51C720.439 1241.51 724.588 1241.7 728.693 1242.03L728.734 1241.53ZM718.853 1239.82C722.316 1239.82 725.632 1240.61 728.607 1242.01L728.82 1241.55C725.78 1240.12 722.392 1239.32 718.853 1239.32V1239.82ZM505.914 1300.66H596.839V1300.16H505.914V1300.66ZM483.566 1322.38C483.566 1310.41 493.584 1300.66 505.914 1300.66V1300.16C493.322 1300.16 483.066 1310.12 483.066 1322.38H483.566ZM505.914 1344.1C493.584 1344.1 483.566 1334.35 483.566 1322.38H483.066C483.066 1334.64 493.322 1344.6 505.914 1344.6V1344.1ZM574.499 1344.1H505.914V1344.6H574.499V1344.1ZM596.639 1300.26C586.755 1313.43 579.113 1328.27 574.26 1344.28L574.739 1344.42C579.575 1328.48 587.189 1313.68 597.039 1300.56L596.639 1300.26ZM505.914 1361.5H570.508V1361H505.914V1361.5ZM483.566 1383.22C483.566 1371.25 493.584 1361.5 505.914 1361.5V1361C493.322 1361 483.066 1370.96 483.066 1383.22H483.566ZM505.914 1404.94C493.584 1404.94 483.566 1395.19 483.566 1383.22H483.066C483.066 1395.48 493.322 1405.44 505.914 1405.44V1404.94ZM569.972 1404.94H505.914V1405.44H569.972V1404.94ZM568.243 1384.91C568.243 1391.8 568.756 1398.58 569.725 1405.22L570.219 1405.15C569.254 1398.54 568.743 1391.78 568.743 1384.91H568.243ZM570.262 1361.21C568.941 1368.92 568.243 1376.84 568.243 1384.91H568.743C568.743 1376.86 569.439 1368.98 570.755 1361.29L570.262 1361.21ZM505.914 1465.77C493.584 1465.77 483.566 1456.02 483.566 1444.06H483.066C483.066 1456.31 493.322 1466.27 505.914 1466.27V1465.77ZM594.374 1465.77H505.914V1466.27H594.374V1465.77ZM573.28 1422.15C577.673 1438.08 584.81 1452.92 594.17 1466.17L594.578 1465.88C585.251 1452.68 578.14 1437.89 573.762 1422.02L573.28 1422.15ZM505.914 1422.34H573.521V1421.84H505.914V1422.34ZM483.566 1444.06C483.566 1432.09 493.584 1422.34 505.914 1422.34V1421.84C493.322 1421.84 483.066 1431.8 483.066 1444.06H483.566ZM716.246 1511.4C644.491 1511.4 586.126 1454.65 586.126 1384.91H585.626C585.626 1454.94 644.229 1511.9 716.246 1511.9V1511.4ZM846.367 1384.91C846.367 1454.65 788.001 1511.4 716.246 1511.4V1511.9C788.264 1511.9 846.867 1454.94 846.867 1384.91H846.367ZM716.246 1258.41C788.001 1258.41 846.367 1315.17 846.367 1384.91H846.867C846.867 1314.88 788.264 1257.91 716.246 1257.91V1258.41ZM586.126 1384.91C586.126 1315.17 644.491 1258.41 716.246 1258.41V1257.91C644.229 1257.91 585.626 1314.88 585.626 1384.91H586.126ZM716.204 1374.4C704.098 1374.4 694.325 1366.12 694.325 1356.03H693.825C693.825 1366.47 703.906 1374.9 716.204 1374.9V1374.4ZM758.699 1412.82C758.699 1391.61 739.611 1374.4 716.204 1374.4V1374.9C739.384 1374.9 758.199 1391.93 758.199 1412.82H758.699ZM726.316 1450.14C744.864 1446.03 758.699 1430.88 758.699 1412.82H758.199C758.199 1430.61 744.566 1445.59 726.208 1449.65L726.316 1450.14ZM726.512 1454.12V1449.9H726.012V1454.12H726.512ZM716.204 1464.15C721.889 1464.15 726.512 1459.67 726.512 1454.12H726.012C726.012 1459.38 721.626 1463.65 716.204 1463.65V1464.15ZM705.895 1454.12C705.895 1459.67 710.518 1464.15 716.204 1464.15V1463.65C710.781 1463.65 706.395 1459.38 706.395 1454.12H705.895ZM705.895 1449.9V1454.12H706.395V1449.9H705.895ZM673.708 1412.82C673.708 1430.88 687.543 1446.03 706.091 1450.14L706.199 1449.65C687.841 1445.59 674.208 1430.61 674.208 1412.82H673.708ZM684.017 1402.79C678.331 1402.79 673.708 1407.28 673.708 1412.82H674.208C674.208 1407.57 678.594 1403.29 684.017 1403.29V1402.79ZM694.325 1412.82C694.325 1407.28 689.702 1402.79 684.017 1402.79V1403.29C689.44 1403.29 693.825 1407.57 693.825 1412.82H694.325ZM716.204 1431.19C704.098 1431.19 694.325 1422.91 694.325 1412.82H693.825C693.825 1423.27 703.906 1431.69 716.204 1431.69V1431.19ZM738.082 1412.82C738.082 1422.91 728.309 1431.19 716.204 1431.19V1431.69C728.501 1431.69 738.582 1423.27 738.582 1412.82H738.082ZM716.204 1394.45C728.309 1394.45 738.082 1402.73 738.082 1412.82H738.582C738.582 1402.38 728.501 1393.95 716.204 1393.95V1394.45ZM673.708 1356.03C673.708 1377.24 692.796 1394.45 716.204 1394.45V1393.95C693.023 1393.95 674.208 1376.92 674.208 1356.03H673.708ZM706.091 1318.71C687.543 1322.82 673.708 1337.97 673.708 1356.03H674.208C674.208 1338.24 687.841 1323.26 706.199 1319.19L706.091 1318.71ZM705.895 1313.86V1318.95H706.395V1313.86H705.895ZM716.204 1303.84C710.518 1303.84 705.895 1308.32 705.895 1313.86H706.395C706.395 1308.61 710.781 1304.34 716.204 1304.34V1303.84ZM726.512 1313.86C726.512 1308.32 721.889 1303.84 716.204 1303.84V1304.34C721.626 1304.34 726.012 1308.61 726.012 1313.86H726.512ZM726.512 1318.95V1313.86H726.012V1318.95H726.512ZM758.699 1356.03C758.699 1337.97 744.864 1322.82 726.316 1318.71L726.208 1319.19C744.566 1323.26 758.199 1338.24 758.199 1356.03H758.699ZM748.39 1366.05C754.076 1366.05 758.699 1361.57 758.699 1356.03H758.199C758.199 1361.28 753.813 1365.55 748.39 1365.55V1366.05ZM738.082 1356.03C738.082 1361.57 742.705 1366.05 748.39 1366.05V1365.55C742.967 1365.55 738.582 1361.28 738.582 1356.03H738.082ZM716.204 1337.66C728.309 1337.66 738.082 1345.94 738.082 1356.03H738.582C738.582 1345.58 728.501 1337.16 716.204 1337.16V1337.66ZM694.325 1356.03C694.325 1345.94 704.098 1337.66 716.204 1337.66V1337.16C703.906 1337.16 693.825 1345.58 693.825 1356.03H694.325Z" fill="#FF872C"/>
<path d="M317.516 1648H339.416V1663H297.916V1592.5H317.516V1648ZM358.938 1601.7C355.471 1601.7 352.671 1600.77 350.538 1598.9C348.471 1596.97 347.438 1594.57 347.438 1591.7C347.438 1588.77 348.471 1586.33 350.538 1584.4C352.671 1582.47 355.471 1581.5 358.938 1581.5C362.338 1581.5 365.071 1582.47 367.138 1584.4C369.271 1586.33 370.338 1588.77 370.338 1591.7C370.338 1594.57 369.271 1596.97 367.138 1598.9C365.071 1600.77 362.338 1601.7 358.938 1601.7ZM368.638 1606.9V1663H349.038V1606.9H368.638ZM418.499 1606.4C424.966 1606.4 430.099 1608.57 433.899 1612.9C437.699 1617.17 439.599 1622.97 439.599 1630.3V1663H419.999V1632.9C419.999 1629.7 419.166 1627.2 417.499 1625.4C415.833 1623.53 413.599 1622.6 410.799 1622.6C407.866 1622.6 405.566 1623.53 403.899 1625.4C402.233 1627.2 401.399 1629.7 401.399 1632.9V1663H381.799V1606.9H401.399V1614.9C403.133 1612.37 405.466 1610.33 408.399 1608.8C411.333 1607.2 414.699 1606.4 418.499 1606.4ZM476.254 1663.7C471.187 1663.7 466.654 1662.87 462.654 1661.2C458.721 1659.47 455.587 1657.13 453.254 1654.2C450.987 1651.2 449.721 1647.83 449.454 1644.1H468.454C468.721 1645.9 469.554 1647.3 470.954 1648.3C472.354 1649.3 474.087 1649.8 476.154 1649.8C477.754 1649.8 479.021 1649.47 479.954 1648.8C480.887 1648.13 481.354 1647.27 481.354 1646.2C481.354 1644.8 480.587 1643.77 479.054 1643.1C477.521 1642.43 474.987 1641.7 471.454 1640.9C467.454 1640.1 464.121 1639.2 461.454 1638.2C458.787 1637.2 456.454 1635.57 454.454 1633.3C452.521 1631.03 451.554 1627.97 451.554 1624.1C451.554 1620.77 452.454 1617.77 454.254 1615.1C456.054 1612.37 458.687 1610.2 462.154 1608.6C465.687 1607 469.921 1606.2 474.854 1606.2C482.187 1606.2 487.954 1608 492.154 1611.6C496.354 1615.2 498.787 1619.93 499.454 1625.8H481.754C481.421 1624 480.621 1622.63 479.354 1621.7C478.154 1620.7 476.521 1620.2 474.454 1620.2C472.854 1620.2 471.621 1620.5 470.754 1621.1C469.954 1621.7 469.554 1622.53 469.554 1623.6C469.554 1624.93 470.321 1625.97 471.854 1626.7C473.387 1627.37 475.854 1628.07 479.254 1628.8C483.321 1629.67 486.687 1630.63 489.354 1631.7C492.087 1632.77 494.454 1634.5 496.454 1636.9C498.521 1639.23 499.554 1642.43 499.554 1646.5C499.554 1649.77 498.587 1652.7 496.654 1655.3C494.787 1657.9 492.087 1659.97 488.554 1661.5C485.087 1662.97 480.987 1663.7 476.254 1663.7ZM558.99 1592.5V1608.1H530.79V1620.5H551.59V1635.4H530.79V1663H511.19V1592.5H558.99ZM579.145 1601.7C575.678 1601.7 572.878 1600.77 570.745 1598.9C568.678 1596.97 567.645 1594.57 567.645 1591.7C567.645 1588.77 568.678 1586.33 570.745 1584.4C572.878 1582.47 575.678 1581.5 579.145 1581.5C582.545 1581.5 585.278 1582.47 587.345 1584.4C589.478 1586.33 590.545 1588.77 590.545 1591.7C590.545 1594.57 589.478 1596.97 587.345 1598.9C585.278 1600.77 582.545 1601.7 579.145 1601.7ZM588.845 1606.9V1663H569.245V1606.9H588.845ZM638.706 1606.4C645.173 1606.4 650.306 1608.57 654.106 1612.9C657.906 1617.17 659.806 1622.97 659.806 1630.3V1663H640.206V1632.9C640.206 1629.7 639.373 1627.2 637.706 1625.4C636.04 1623.53 633.806 1622.6 631.006 1622.6C628.073 1622.6 625.773 1623.53 624.106 1625.4C622.44 1627.2 621.606 1629.7 621.606 1632.9V1663H602.006V1606.9H621.606V1614.9C623.34 1612.37 625.673 1610.33 628.606 1608.8C631.54 1607.2 634.906 1606.4 638.706 1606.4ZM669.361 1634.9C669.361 1629.1 670.394 1624.03 672.461 1619.7C674.594 1615.37 677.461 1612.03 681.061 1609.7C684.728 1607.37 688.794 1606.2 693.261 1606.2C697.128 1606.2 700.461 1606.97 703.261 1608.5C706.061 1610.03 708.228 1612.1 709.761 1614.7V1606.9H729.361V1663H709.761V1655.2C708.228 1657.8 706.028 1659.87 703.161 1661.4C700.361 1662.93 697.061 1663.7 693.261 1663.7C688.794 1663.7 684.728 1662.53 681.061 1660.2C677.461 1657.87 674.594 1654.53 672.461 1650.2C670.394 1645.8 669.361 1640.7 669.361 1634.9ZM709.761 1634.9C709.761 1631.3 708.761 1628.47 706.761 1626.4C704.828 1624.33 702.428 1623.3 699.561 1623.3C696.628 1623.3 694.194 1624.33 692.261 1626.4C690.328 1628.4 689.361 1631.23 689.361 1634.9C689.361 1638.5 690.328 1641.37 692.261 1643.5C694.194 1645.57 696.628 1646.6 699.561 1646.6C702.428 1646.6 704.828 1645.57 706.761 1643.5C708.761 1641.43 709.761 1638.57 709.761 1634.9ZM779.23 1606.4C785.696 1606.4 790.83 1608.57 794.63 1612.9C798.43 1617.17 800.33 1622.97 800.33 1630.3V1663H780.73V1632.9C780.73 1629.7 779.896 1627.2 778.23 1625.4C776.563 1623.53 774.33 1622.6 771.53 1622.6C768.596 1622.6 766.296 1623.53 764.63 1625.4C762.963 1627.2 762.13 1629.7 762.13 1632.9V1663H742.53V1606.9H762.13V1614.9C763.863 1612.37 766.196 1610.33 769.13 1608.8C772.063 1607.2 775.43 1606.4 779.23 1606.4ZM809.884 1634.9C809.884 1629.1 811.084 1624.03 813.484 1619.7C815.884 1615.37 819.218 1612.03 823.484 1609.7C827.818 1607.37 832.751 1606.2 838.284 1606.2C845.418 1606.2 851.418 1608.17 856.284 1612.1C861.151 1615.97 864.284 1621.4 865.684 1628.4H844.884C843.684 1624.73 841.351 1622.9 837.884 1622.9C835.418 1622.9 833.451 1623.93 831.984 1626C830.584 1628 829.884 1630.97 829.884 1634.9C829.884 1638.83 830.584 1641.83 831.984 1643.9C833.451 1645.97 835.418 1647 837.884 1647C841.418 1647 843.751 1645.17 844.884 1641.5H865.684C864.284 1648.43 861.151 1653.87 856.284 1657.8C851.418 1661.73 845.418 1663.7 838.284 1663.7C832.751 1663.7 827.818 1662.53 823.484 1660.2C819.218 1657.87 815.884 1654.53 813.484 1650.2C811.084 1645.87 809.884 1640.77 809.884 1634.9ZM929.427 1634.3C929.427 1635.83 929.327 1637.37 929.127 1638.9H892.027C892.227 1641.97 893.06 1644.27 894.527 1645.8C896.06 1647.27 897.993 1648 900.327 1648C903.593 1648 905.927 1646.53 907.327 1643.6H928.227C927.36 1647.47 925.66 1650.93 923.127 1654C920.66 1657 917.527 1659.37 913.727 1661.1C909.927 1662.83 905.727 1663.7 901.127 1663.7C895.593 1663.7 890.66 1662.53 886.327 1660.2C882.06 1657.87 878.693 1654.53 876.227 1650.2C873.827 1645.87 872.627 1640.77 872.627 1634.9C872.627 1629.03 873.827 1623.97 876.227 1619.7C878.627 1615.37 881.96 1612.03 886.227 1609.7C890.56 1607.37 895.527 1606.2 901.127 1606.2C906.66 1606.2 911.56 1607.33 915.827 1609.6C920.093 1611.87 923.427 1615.13 925.827 1619.4C928.227 1623.6 929.427 1628.57 929.427 1634.3ZM909.427 1629.4C909.427 1627 908.627 1625.13 907.027 1623.8C905.427 1622.4 903.427 1621.7 901.027 1621.7C898.627 1621.7 896.66 1622.37 895.127 1623.7C893.593 1624.97 892.593 1626.87 892.127 1629.4H909.427ZM963.348 1663.7C958.281 1663.7 953.748 1662.87 949.748 1661.2C945.814 1659.47 942.681 1657.13 940.348 1654.2C938.081 1651.2 936.814 1647.83 936.548 1644.1H955.548C955.814 1645.9 956.648 1647.3 958.048 1648.3C959.448 1649.3 961.181 1649.8 963.248 1649.8C964.848 1649.8 966.114 1649.47 967.048 1648.8C967.981 1648.13 968.448 1647.27 968.448 1646.2C968.448 1644.8 967.681 1643.77 966.148 1643.1C964.614 1642.43 962.081 1641.7 958.548 1640.9C954.548 1640.1 951.214 1639.2 948.548 1638.2C945.881 1637.2 943.548 1635.57 941.548 1633.3C939.614 1631.03 938.648 1627.97 938.648 1624.1C938.648 1620.77 939.548 1617.77 941.348 1615.1C943.148 1612.37 945.781 1610.2 949.248 1608.6C952.781 1607 957.014 1606.2 961.948 1606.2C969.281 1606.2 975.048 1608 979.248 1611.6C983.448 1615.2 985.881 1619.93 986.548 1625.8H968.848C968.514 1624 967.714 1622.63 966.448 1621.7C965.248 1620.7 963.614 1620.2 961.548 1620.2C959.948 1620.2 958.714 1620.5 957.848 1621.1C957.048 1621.7 956.648 1622.53 956.648 1623.6C956.648 1624.93 957.414 1625.97 958.948 1626.7C960.481 1627.37 962.948 1628.07 966.348 1628.8C970.414 1629.67 973.781 1630.63 976.448 1631.7C979.181 1632.77 981.548 1634.5 983.548 1636.9C985.614 1639.23 986.648 1642.43 986.648 1646.5C986.648 1649.77 985.681 1652.7 983.748 1655.3C981.881 1657.9 979.181 1659.97 975.648 1661.5C972.181 1662.97 968.081 1663.7 963.348 1663.7Z" fill="white"/>
</svg>
